<svg width="200" height="217" viewBox="0 0 200 217" fill="none" xmlns="http://www.w3.org/2000/svg">
<rect width="200" height="200" rx="5" fill="#FF9131"/>
<path d="M185.909 108.818H160.273C160.091 106.697 159.606 104.773 158.818 103.045C158.061 101.318 157 99.8333 155.636 98.5909C154.303 97.3182 152.682 96.3485 150.773 95.6818C148.864 94.9848 146.697 94.6364 144.273 94.6364C140.03 94.6364 136.439 95.6667 133.5 97.7273C130.591 99.7879 128.379 102.742 126.864 106.591C125.379 110.439 124.636 115.061 124.636 120.455C124.636 126.152 125.394 130.924 126.909 134.773C128.455 138.591 130.682 141.47 133.591 143.409C136.5 145.318 140 146.273 144.091 146.273C146.424 146.273 148.515 145.985 150.364 145.409C152.212 144.803 153.818 143.939 155.182 142.818C156.545 141.697 157.652 140.348 158.5 138.773C159.379 137.167 159.97 135.364 160.273 133.364L185.909 133.545C185.606 137.485 184.5 141.5 182.591 145.591C180.682 149.652 177.97 153.409 174.455 156.864C170.97 160.288 166.652 163.045 161.5 165.136C156.348 167.227 150.364 168.273 143.545 168.273C135 168.273 127.333 166.439 120.545 162.773C113.788 159.106 108.439 153.712 104.5 146.591C100.591 139.47 98.6364 130.758 98.6364 120.455C98.6364 110.091 100.636 101.364 104.636 94.2727C108.636 87.1515 114.03 81.7727 120.818 78.1364C127.606 74.4697 135.182 72.6364 143.545 72.6364C149.424 72.6364 154.833 73.4394 159.773 75.0454C164.712 76.6515 169.045 79 172.773 82.0909C176.5 85.1515 179.5 88.9242 181.773 93.4091C184.045 97.8939 185.424 103.03 185.909 108.818Z" fill="#FFFDFD"/>
<path d="M42.1818 130H14.9091L45.6364 36.9091H80.1818L110.909 130H83.6364L63.2727 62.5455H62.5455L42.1818 130ZM37.0909 93.2727H88.3636V112.182H37.0909V93.2727Z" fill="#FAF8F8"/>
</svg>
